<svg width="40" height="40" viewBox="0 0 40 40" fill="none" xmlns="http://www.w3.org/2000/svg">
<rect opacity="0.1" width="40" height="40" rx="9" fill="black"/>
<path fill-rule="evenodd" clip-rule="evenodd" d="M19.9962 8C16.7382 8 16.3297 8.01381 15.0502 8.07219C13.7733 8.13043 12.9013 8.33324 12.1382 8.62981C11.3494 8.93633 10.6803 9.34652 10.0134 10.0134C9.34648 10.6804 8.93633 11.3494 8.62976 12.1382C8.33319 12.9013 8.13043 13.7733 8.07214 15.0502C8.01376 16.3297 8 16.7382 8 19.9962C8 23.2542 8.01376 23.6627 8.07214 24.9422C8.13043 26.2191 8.33319 27.0911 8.62976 27.8542C8.93633 28.643 9.34648 29.312 10.0134 29.979C10.6803 30.6459 11.3494 31.056 12.1382 31.3627C12.9013 31.6592 13.7733 31.862 15.0502 31.9203C16.3297 31.9786 16.7382 31.9924 19.9962 31.9924C23.2542 31.9924 23.6627 31.9786 24.9422 31.9203C26.2191 31.862 27.0911 31.6592 27.8542 31.3627C28.643 31.056 29.312 30.6459 29.979 29.979C30.6459 29.312 31.056 28.643 31.3626 27.8542C31.6592 27.0911 31.862 26.2191 31.9202 24.9422C31.9786 23.6627 31.9924 23.2542 31.9924 19.9962C31.9924 16.7382 31.9786 16.3297 31.9202 15.0502C31.862 13.7733 31.6592 12.9013 31.3626 12.1382C31.056 11.3494 30.6459 10.6804 29.979 10.0134C29.312 9.34652 28.643 8.93633 27.8542 8.62981C27.0911 8.33324 26.2191 8.13043 24.9422 8.07219C23.6627 8.01381 23.2542 8 19.9962 8ZM19.9962 10.1615C23.1993 10.1615 23.5787 10.1737 24.8437 10.2314C26.0133 10.2848 26.6485 10.4802 27.0712 10.6445C27.6311 10.8621 28.0308 11.122 28.4506 11.5418C28.8703 11.9616 29.1303 12.3612 29.348 12.9212C29.5122 13.3439 29.7076 13.9791 29.761 15.1487C29.8187 16.4137 29.8309 16.7931 29.8309 19.9962C29.8309 23.1993 29.8187 23.5788 29.761 24.8437C29.7076 26.0133 29.5122 26.6485 29.348 27.0712C29.1303 27.6311 28.8703 28.0308 28.4506 28.4506C28.0308 28.8704 27.6311 29.1303 27.0712 29.348C26.6485 29.5122 26.0133 29.7077 24.8437 29.761C23.5789 29.8187 23.1996 29.831 19.9962 29.831C16.7928 29.831 16.4135 29.8187 15.1487 29.761C13.9791 29.7077 13.3439 29.5122 12.9211 29.348C12.3612 29.1303 11.9616 28.8704 11.5418 28.4506C11.122 28.0308 10.862 27.6311 10.6444 27.0712C10.4802 26.6485 10.2848 26.0133 10.2314 24.8437C10.1737 23.5788 10.1615 23.1993 10.1615 19.9962C10.1615 16.7931 10.1737 16.4137 10.2314 15.1487C10.2848 13.9791 10.4802 13.3439 10.6444 12.9212C10.862 12.3612 11.122 11.9616 11.5418 11.5419C11.9616 11.122 12.3612 10.8621 12.9211 10.6445C13.3439 10.4802 13.9791 10.2848 15.1487 10.2314C16.4137 10.1737 16.793 10.1615 19.9962 10.1615Z" fill="black"/>
<path fill-rule="evenodd" clip-rule="evenodd" d="M20.1602 24.159C17.9518 24.159 16.1615 22.3686 16.1615 20.1602C16.1615 17.9518 17.9518 16.1615 20.1602 16.1615C22.3687 16.1615 24.159 17.9518 24.159 20.1602C24.159 22.3686 22.3687 24.159 20.1602 24.159ZM20.1602 14C16.758 14 14 16.758 14 20.1602C14 23.5624 16.758 26.3204 20.1602 26.3204C23.5624 26.3204 26.3204 23.5624 26.3204 20.1602C26.3204 16.758 23.5624 14 20.1602 14Z" fill="black"/>
<path fill-rule="evenodd" clip-rule="evenodd" d="M27.8791 13.4395C27.8791 14.2346 27.2346 14.879 26.4396 14.879C25.6445 14.879 25 14.2346 25 13.4395C25 12.6445 25.6445 12 26.4396 12C27.2346 12 27.8791 12.6445 27.8791 13.4395Z" fill="black"/>
</svg>
