<svg width="48" height="48" viewBox="0 0 48 48" version="1.1" xmlns="http://www.w3.org/2000/svg">
    <g stroke="none" stroke-width="1" fill="none" fill-rule="evenodd">
        <path d="M0,9.62965333 C0,4.31133333 4.31117333,0 9.62965333,0 L38.3704,0 C43.6885333,0 48,4.31117333 48,9.62965333 L48,38.3704 C48,43.6885333 43.6888,48 38.3704,48 L9.62965333,48 C4.31133333,48 0,43.6888 0,38.3704 L0,9.62965333 Z" id="Path" fill="#FC413D"></path>
        <path d="M16.3320267,14.3899733 C14.0662133,14.3899733 12.3168533,15.8836 12.3168533,18.07136 C12.3168533,20.2590667 14.0662133,21.7533067 16.3320267,21.7533067 C18.59928,21.7533067 20.3475467,20.2590667 20.3475467,18.07136 C20.3475467,15.8836 18.59928,14.3899733 16.3320267,14.3899733 Z M7.53968,19.5332533 L6.54994667,21.10288 C7.11429333,21.5572267 7.91685333,21.7533067 8.68322667,21.7533067 C10.3891467,21.7533067 11.5220267,20.90984 11.5220267,19.0852533 L11.5220267,14.5070933 L9.30008,14.5070933 L9.30008,19.05248 C9.30008,19.5551733 8.97,19.8536 8.48530667,19.8536 C8.11149333,19.8536 7.78088,19.6931467 7.53968,19.5332533 Z M18.09224,18.07136 C18.09224,17.0786133 17.39912,16.2890667 16.3320267,16.2890667 C15.2644533,16.2890667 14.57224,17.0786133 14.57224,18.07136 C14.57224,19.0640533 15.2644533,19.8536 16.3320267,19.8536 C17.39912,19.8536 18.09224,19.0640533 18.09224,18.07136 Z M21.1436267,21.62504 L21.1436267,14.5070933 L25.4722933,14.5070933 C26.9906667,14.5070933 27.6512,15.4888267 27.6512,16.32096 C27.6512,17.2074933 27.1112,17.8289867 26.5243467,17.9539733 C27.3165333,18.07136 27.9208,18.7752533 27.9208,19.6931467 C27.9208,20.68584 27.228,21.62504 25.7537867,21.62504 L21.1436267,21.62504 Z M25.0837067,16.29992 C25.3141867,16.29992 25.5222133,16.56336 25.5222133,16.8089067 C25.5222133,17.0641867 25.3141867,17.3677333 25.0837067,17.3677333 L23.36688,17.3677333 L23.36688,16.29992 L25.0837067,16.29992 Z M25.1494133,18.6901333 C25.4677333,18.6901333 25.66648,18.9828 25.66648,19.2383733 C25.66648,19.50488 25.4677333,19.8320267 25.1494133,19.8320267 L23.36688,19.8320267 L23.36688,18.6901333 L25.1494133,18.6901333 Z M16.3478667,24.9098133 C14.0825333,24.9098133 12.3332533,26.4044 12.3332533,28.5922667 C12.3332533,30.7794667 14.0825333,32.2728 16.3478667,32.2728 C18.6145867,32.2728 20.3628533,30.7794667 20.3628533,28.5922667 C20.3628533,26.4044 18.6145867,24.9098133 16.3478667,24.9098133 Z M18.1089067,28.5922667 C18.1089067,27.5992 17.4157867,26.8093333 16.3478667,26.8093333 C15.28096,26.8093333 14.5882933,27.5992 14.5882933,28.5922667 C14.5882933,29.5848 15.28096,30.3738667 16.3478667,30.3738667 C17.4157867,30.3738667 18.1089067,29.5848 18.1089067,28.5922667 Z M21.15968,32.1456 L21.15968,25.0278933 L24.43808,25.0278933 C26.7482667,25.0278933 28.4645333,26.3082133 28.4645333,28.5810667 C28.4645333,30.8546667 26.7482667,32.1456 24.4490133,32.1456 L21.15968,32.1456 Z M24.4490133,26.9053333 C25.6377867,26.9053333 26.2086933,27.6210667 26.2086933,28.5810667 C26.2086933,29.4768 25.5488267,30.2677333 24.43808,30.2677333 L23.3821867,30.2677333 L23.3821867,26.9053333 L24.4490133,26.9053333 Z M37.6090667,29.3165333 L37.6090667,32.1456 L39.8317333,32.1456 L39.8317333,29.3165333 L42.5602667,25.0278933 L40.0624,25.0278933 L38.7205333,27.4282667 L37.3573333,25.0278933 L34.8586667,25.0278933 L37.6090667,29.3165333 Z M33.6394667,25.0278933 L30.8445333,25.0278933 L28.1384,32.1456 L30.6576,32.1456 L30.9216,31.3133333 L33.5624,31.3133333 L33.8258667,32.1456 L36.3453333,32.1456 L33.6394667,25.0278933 Z M32.2416,27.1405333 L31.4610667,29.5917333 L33.02,29.5917333 L32.2416,27.1405333 Z M5.75138667,25.0278933 L12.1826133,25.0278933 L12.2548,25.0278933 L12.2548,26.9053333 L10.1146667,26.9053333 L10.1146667,32.1456 L7.89250667,32.1456 L7.89250667,26.9053333 L5.75138667,26.9053333 L5.75138667,25.0278933 Z" id="Shape" fill="#FFFFFF"></path>
    </g>
</svg>