<svg width="40" height="40" fill="none" xmlns="http://www.w3.org/2000/svg"><rect opacity=".1" width="40" height="40" rx="9" fill="#000"/><path fill-rule="evenodd" clip-rule="evenodd" d="M20.916 16.983l.04.648-.663-.08c-2.415-.303-4.525-1.334-6.316-3.066l-.876-.859-.225.635c-.478 1.414-.172 2.908.822 3.912.531.555.412.635-.504.304-.318-.106-.597-.185-.623-.145-.093.092.226 1.295.477 1.771.345.661 1.049 1.309 1.818 1.692l.65.304-.77.013c-.742 0-.769.013-.69.291.266.86 1.315 1.771 2.482 2.168l.822.277-.716.423a7.547 7.547 0 01-3.556.979c-.597.013-1.088.066-1.088.105 0 .132 1.62.872 2.56 1.164 2.827.859 6.184.488 8.704-.979 1.792-1.044 3.583-3.12 4.419-5.128.45-1.071.902-3.027.902-3.965 0-.609.04-.688.783-1.415.438-.423.849-.886.928-1.018.133-.251.12-.251-.557-.026-1.128.396-1.287.343-.73-.251.412-.423.902-1.19.902-1.415 0-.04-.198.026-.424.146-.239.132-.77.33-1.168.449l-.716.224-.65-.436c-.358-.237-.862-.502-1.128-.581-.677-.186-1.712-.159-2.322.053-1.658.594-2.706 2.128-2.587 3.806z" fill="#000"/></svg>